:SAMPLES-PER-SECOND 24
:FULLY-SPECIFIED
:DEGREES
219
root  1.09674 38.8788 24.2812 3.72806 -55.0026 1.96645
RightUpLeg  -1.43822 -2.09403 -5.30837
RightLeg  22.1659 -11.6295 -5.36132
RightFoot  -19.8485 0.29024 5.67074
RightToes  -2.08645e-008 3.77894e-005 6.81332e-007
Spine  -0.761655 1.19194 4.5609
Spine1  7.2507 1.57924 -2.18985
HEad  -39.5815 37.845 -25.6674
LeftShoulder1  6.98521 -12.7379 -36.9405
LeftArm  -2.83739 18.9944 -26.8601
LeftForeArm  149.834 -76.9435 -134.657
LeftHand  -0.401115 -3.22956 5.64549
RightShoulder  3.91736 6.65608 32.6721
RightArm  10.6598 -19.8292 27.571
RightForeArm  91.3447 80.2336 81.809
RightHand  -0.483446 7.15714 -4.82282
LeftUpLeg  -28.4359 22.8794 6.60594
LeftLeg  38.8629 9.28753 8.30928
LeftFoot  6.7909 1.51209 -9.73062
LeftToes  1.24767e-006 1.47042e-008 1.32732e-009
220
root  0.874897 39.4458 24.9976 5.29292 -52.4291 1.66031
RightUpLeg  0.331296 -3.66331 -5.83988
RightLeg  17.9635 -11.3321 -4.34933
RightFoot  -15.7439 0.208203 8.18627
RightToes  -2.08645e-008 3.77894e-005 6.81332e-007
Spine  -2.89457 2.40414 5.27954
Spine1  6.52573 2.91884 -3.41098
HEad  -37.3942 36.3553 -24.7411
LeftShoulder1  6.8723 -12.6052 -36.6047
LeftArm  -1.82523 25.1959 -26.4295
LeftForeArm  154.599 -75.7432 -139.527
LeftHand  -0.314909 -3.53349 4.35284
RightShoulder  3.92462 6.63806 32.8126
RightArm  11.0932 -20.7691 27.604
RightForeArm  96.8856 80.3143 87.8453
RightHand  -0.612043 7.15302 -6.00615
LeftUpLeg  -30.5661 27.7428 2.9897
LeftLeg  33.3554 12.0306 8.74989
LeftFoot  5.27074 1.12175 -7.8958
LeftToes  1.24767e-006 1.47042e-008 1.32732e-009
221
root  0.749593 39.779 25.7861 7.14516 -49.7444 0.60675
RightUpLeg  0.985119 -6.87615 -6.24763
RightLeg  16.7132 -10.1921 -3.61605
RightFoot  -12.466 0.0206843 10.3796
RightToes  -2.08645e-008 3.77894e-005 6.81332e-007
Spine  -3.89829 3.57775 6.05488
Spine1  5.19488 4.07602 -4.10682
HEad  -35.7986 34.8451 -24.1447
LeftShoulder1  6.57777 -12.306 -35.5747
LeftArm  -1.60689 30.6616 -26.1852
LeftForeArm  154.975 -75.377 -140.629
LeftHand  -0.245268 -3.57555 3.4331
RightShoulder  3.89897 6.62608 32.6049
RightArm  13.2745 -17.6693 26.8528
RightForeArm  87.6885 80.1282 78.1785
RightHand  -0.460667 7.63119 -4.46156
LeftUpLeg  -32.4087 30.6624 0.0492113
LeftLeg  25.3997 12.3467 6.71382
LeftFoot  3.25178 1.12157 -8.90274
LeftToes  1.24767e-006 1.47042e-008 1.32732e-009
222
root  0.701643 39.7089 26.5748 8.46161 -46.8576 -1.23773
RightUpLeg  2.29584 -10.3541 -6.06677
RightLeg  16.9913 -9.81236 -3.29242
RightFoot  -11.4794 -0.0669686 10.6948
RightToes  -2.08645e-008 3.77894e-005 6.81332e-007
Spine  -3.21774 4.67906 7.51252
Spine1  3.8386 5.22386 -4.95488
HEad  -35.4806 32.4211 -23.6118
LeftShoulder1  6.32838 -12.1031 -34.5384
LeftArm  -2.12761 33.4136 -24.7661
LeftForeArm  150.258 -75.7791 -138.546
LeftHand  -0.252566 -3.2221 3.64867
RightShoulder  3.86246 6.65648 32.1284
RightArm  15.179 -11.2832 26.7275
RightForeArm  68.8574 78.812 59.6653
RightHand  -0.426751 7.50173 -4.20357
LeftUpLeg  -32.7545 30.154 0.0632729
LeftLeg  17.2801 11.5974 3.78944
LeftFoot  2.48487 1.20479 -10.0396
LeftToes  1.24767e-006 1.47042e-008 1.32732e-009
223
root  0.698348 39.2579 27.3596 9.24783 -44.6174 -2.93546
RightUpLeg  4.19011 -11.7891 -5.73062
RightLeg  17.2093 -9.95707 -3.26914
RightFoot  -13.2401 0.121283 12.5564
RightToes  -2.08645e-008 3.77894e-005 6.81332e-007
Spine  -1.69885 5.80289 9.58167
Spine1  2.69323 6.71755 -7.27358
HEad  -35.8461 29.5875 -23.0751
LeftShoulder1  6.20643 -12.0074 -34.0073
LeftArm  -3.7357 33.4994 -21.6079
LeftForeArm  144.685 -76.1925 -136.094
LeftHand  -0.301141 -3.0376 4.38125
RightShoulder  3.76077 6.6107 31.2881
RightArm  16.465 -2.20026 28.2994
RightForeArm  52.6236 76.0387 43.4285
RightHand  -0.624536 7.667 -5.89174
LeftUpLeg  -31.0117 22.5982 6.13445
LeftLeg  10.288 18.7041 -0.0954631
LeftFoot  1.85429 1.15685 -10.0804
LeftToes  1.24767e-006 1.47042e-008 1.32732e-009
224
root  0.656834 38.6174 28.2816 10.0546 -42.5494 -4.24805
RightUpLeg  6.05801 -11.5334 -5.25888
RightLeg  17.3878 -12.0007 -3.98302
RightFoot  -15.4778 0.412301 14.2711
RightToes  -2.08645e-008 3.77894e-005 6.81332e-007
Spine  -1.15501 6.8384 12.1416
Spine1  2.4761 8.34238 -10.7827
HEad  -36.2449 26.8584 -22.425
LeftShoulder1  6.18485 -11.9713 -33.9623
LeftArm  -6.38353 31.6314 -18.1993
LeftForeArm  139.671 -76.8094 -132.807
LeftHand  -0.386317 -2.50063 5.8986
RightShoulder  3.61529 6.47428 30.3253
RightArm  17.0851 8.16419 31.6692
RightForeArm  44.2539 73.2118 34.3404
RightHand  -0.663086 7.65297 -6.25096
LeftUpLeg  -30.8802 16.8815 10.7472
LeftLeg  5.00202 28.9712 -3.07674
LeftFoot  0.0224111 1.00267 -10.0621
LeftToes  1.24767e-006 1.47042e-008 1.32732e-009
225
root  0.548578 37.9637 29.5486 10.5455 -39.3616 -5.26257
RightUpLeg  8.94887 -11.1491 -4.82637
RightLeg  17.0415 -15.3993 -4.81452
RightFoot  -16.7846 0.615703 15.1701
RightToes  -2.08645e-008 3.77894e-005 6.81332e-007
Spine  -1.52634 7.62853 14.4874
Spine1  2.43029 9.6297 -14.1383
HEad  -35.4151 24.2086 -20.9403
LeftShoulder1  6.2791 -12.049 -34.3634
LeftArm  -9.9205 29.0151 -16.2499
LeftForeArm  134.513 -77.7495 -127.615
LeftHand  -0.486369 -1.88682 7.93928
RightShoulder  3.57063 6.43828 30.0019
RightArm  16.6326 16.7717 35.1963
RightForeArm  41.7699 71.6225 30.5965
RightHand  -0.685719 7.61882 -6.46574
LeftUpLeg  -31.9342 15.2893 11.0161
LeftLeg  2.82439 39.7973 -4.08352
LeftFoot  -2.11125 0.634812 -7.68126
LeftToes  1.24767e-006 1.47042e-008 1.32732e-009
